# xmcd CD database file generated by RipIT.
#
# Track frame offsets:
#	150
#	18712
#	31859
#	54143
#	71224
#	88608
#	103052
#	121342
#	137206
#	150527
#	162720
#	177695
#	197575
#	221245
#	238798
#	257048
#	271151
#	298651
#
# Disc length: 4240 seconds
#
# Revision: 3
# Processed by: cddbd v1.5.1PL2 Copyright (c) Steve Scherf et al.
# Submitted via: RipIT 3.4 www.suwald.com/ripit/ripit.html at Mon Dec 19 13:53:19 CET 2005.
#
DISCID=13108e12
DTITLE=Various Artist - A Tribute To Depeche Mode - Guitar Interceptions
DYEAR=2000
DGENRE=Rock
TTITLE0=Never Let Me Down Again - The King
TTITLE1=To Have And To Hold - Deftones
TTITLE2=But Not Tonight - Scott Weiland
TTITLE3=Policy Of Truth - Dishwalla
TTITLE4=Stripped (Live) - Kent
TTITLE5=Enjoy The Silence - Mathew Good Band
TTITLE6=Walking In My Shoes - Fingereleven
TTITLE7=Personal Jesus - Jerry Williams
TTITLE8=No Disco - The Wannadies
TTITLE9=Enjoy The Silence - Nufan
TTITLE10=Everything Counts - In Flames
TTITLE11=I Feel You - Vader
TTITLE12=Sacred - Moonspell
TTITLE13=Personal Jesus - Gravity Kills
TTITLE14=Never Let Me Down Again - Smashing Pumpkins
TTITLE15=Enjoy The Silence - Third Try
TTITLE16=I Feel You (Live) - Placebo
TTITLE17=Sweetest Perfection - Deftones
EXTD=
EXTT0=
EXTT1=
EXTT2=
EXTT3=
EXTT4=
EXTT5=
EXTT6=
EXTT7=
EXTT8=
EXTT9=
EXTT10=
EXTT11=
EXTT12=
EXTT13=
EXTT14=
EXTT15=
EXTT16=
EXTT17=
PLAYORDER=
